<?xml version="1.0" encoding="utf-8"?>
<!-- Generator: Adobe Illustrator 16.0.0, SVG Export Plug-In . SVG Version: 6.00 Build 0)  -->
<!DOCTYPE svg PUBLIC "-//W3C//DTD SVG 1.1//EN" "http://www.w3.org/Graphics/SVG/1.1/DTD/svg11.dtd">
<svg version="1.1" id="Layer_1" xmlns="http://www.w3.org/2000/svg" xmlns:xlink="http://www.w3.org/1999/xlink" x="0px" y="0px"
	 width="612px" height="792px" viewBox="0 0 612 792" enable-background="new 0 0 612 792" xml:space="preserve">
<g>
	
		<rect x="256.448" y="64.057" transform="matrix(0.6227 0.7824 -0.7824 0.6227 245.952 -194.6315)" fill="#FFFFFF" stroke="#FFFFFF" stroke-width="6" stroke-miterlimit="10" width="136.709" height="187.341"/>
	
		<rect x="328.951" y="99.168" transform="matrix(0.6227 0.7824 -0.7824 0.6227 227.2387 -253.9438)" fill="#FFFFFF" stroke="#FFFFFF" stroke-width="4" stroke-miterlimit="10" width="96" height="19.001"/>
	
		<line fill="#FFFFFF" stroke="#FFFFFF" stroke-width="4" stroke-miterlimit="10" x1="323.355" y1="88.699" x2="366.013" y2="142.296"/>
	
		<line fill="#FFFFFF" stroke="#FFFFFF" stroke-width="4" stroke-miterlimit="10" x1="313.575" y1="96.483" x2="356.232" y2="150.08"/>
	
		<line fill="#FFFFFF" stroke="#FFFFFF" stroke-width="4" stroke-miterlimit="10" x1="303.404" y1="104.578" x2="346.061" y2="158.175"/>
	<g>
		<g>
			<path fill-rule="evenodd" clip-rule="evenodd" fill="#FFFFFF" d="M363.39,167.151c0.511-0.352,1.017-0.919,1.696-1.248
				c1.309-0.634,2.65-0.558,3.981-0.109c2.463,0.831,4.32,2.473,5.828,4.526c1.264,1.721,2.167,3.61,2.349,5.778
				c0.162,1.943-0.354,3.602-2.042,4.754c-0.171,0.116-0.325,0.255-0.487,0.384c-0.438,0.349-0.876,0.697-1.313,1.045
				c-0.688,0.548-1.229,0.374-1.538-0.476c-0.105-0.288,0.047-0.417,0.233-0.564c0.716-0.564,1.397-1.176,2.146-1.692
				c1.122-0.771,1.451-1.856,1.38-3.127c-0.083-1.455-0.588-2.783-1.316-4.023c-1.254-2.135-2.931-3.834-5.228-4.851
				c-0.646-0.287-1.326-0.456-2.044-0.45c-0.644,0.005-1.214,0.179-1.719,0.592c-0.802,0.655-1.637,1.272-2.422,1.945
				c-0.514,0.438-0.75,0.027-0.996-0.274c-0.25-0.306-0.58-0.641-0.021-1.02C362.372,168.006,362.822,167.603,363.39,167.151z"/>
			<path fill-rule="evenodd" clip-rule="evenodd" fill="#FFFFFF" d="M375.037,169.242c-1.857-2.338-1.483-5.691,0.839-7.531
				c2.317-1.834,5.7-1.429,7.53,0.904c1.82,2.32,1.425,5.633-0.894,7.476C380.199,171.929,376.872,171.552,375.037,169.242z"/>
			<path fill-rule="evenodd" clip-rule="evenodd" fill="#FFFFFF" d="M376.261,168.165c-1.252-1.606-0.956-3.955,0.657-5.199
				c1.61-1.244,3.992-0.948,5.215,0.647c1.271,1.658,0.971,3.954-0.687,5.243C379.834,170.11,377.539,169.804,376.261,168.165z"/>
		</g>
		
			<rect x="362.03" y="152.223" transform="matrix(-0.6227 -0.7824 0.7824 -0.6227 478.3027 567.5658)" fill="#FFFFFF" stroke="#FFFFFF" stroke-width="4" stroke-miterlimit="10" width="27.904" height="32.499"/>
	</g>
	
		<rect x="258.532" y="155.213" transform="matrix(0.6227 0.7824 -0.7824 0.6227 244.5235 -177.7007)" fill="#FFFFFF" stroke="#000000" stroke-width="4" stroke-miterlimit="10" width="96" height="19"/>
	
		<line fill="#FFFFFF" stroke="#000000" stroke-width="4" stroke-miterlimit="10" x1="253.95" y1="145.215" x2="296.607" y2="198.813"/>
	<line fill="#FFFFFF" stroke="#000000" stroke-width="4" stroke-miterlimit="10" x1="244.17" y1="153" x2="286.826" y2="206.597"/>
	
		<line fill="#FFFFFF" stroke="#000000" stroke-width="4" stroke-miterlimit="10" x1="233.998" y1="161.095" x2="276.654" y2="214.692"/>
</g>
<g>
	
		<rect x="153.075" y="79.279" transform="matrix(1 0.002 -0.002 1 0.3476 -0.4441)" fill="#FFFFFF" stroke="#FFFFFF" stroke-width="6" stroke-miterlimit="10" width="136.709" height="187.341"/>
	
		<rect x="167.661" y="92.083" transform="matrix(1 0.002 -0.002 1 0.203 -0.4298)" fill="#FFFFFF" stroke="#FFFFFF" stroke-width="4" stroke-miterlimit="10" width="95.999" height="19.001"/>
	
		<line fill="#FFFFFF" stroke="#FFFFFF" stroke-width="4" stroke-miterlimit="10" x1="166.601" y1="130.985" x2="235.102" y2="131.122"/>
	
		<line fill="#FFFFFF" stroke="#FFFFFF" stroke-width="4" stroke-miterlimit="10" x1="166.577" y1="143.485" x2="235.077" y2="143.622"/>
	
		<line fill="#FFFFFF" stroke="#FFFFFF" stroke-width="4" stroke-miterlimit="10" x1="166.551" y1="156.485" x2="235.051" y2="156.622"/>
	<g>
		<g>
			<path fill-rule="evenodd" clip-rule="evenodd" fill="#FFFFFF" d="M252.881,148.688c0.044-0.619-0.083-1.368,0.084-2.104
				c0.322-1.419,1.219-2.419,2.401-3.179c2.186-1.404,4.629-1.831,7.174-1.727c2.133,0.087,4.173,0.561,5.98,1.771
				c1.619,1.086,2.593,2.525,2.439,4.563c-0.016,0.207-0.004,0.415-0.004,0.622c0,0.56-0.001,1.119-0.003,1.678
				c-0.001,0.88-0.475,1.193-1.332,0.905c-0.291-0.097-0.297-0.296-0.295-0.535c0.006-0.912-0.046-1.826,0.018-2.733
				c0.099-1.359-0.543-2.292-1.582-3.03c-1.187-0.844-2.54-1.278-3.963-1.483c-2.451-0.354-4.825-0.105-7.053,1.055
				c-0.628,0.326-1.185,0.751-1.627,1.316c-0.398,0.506-0.619,1.061-0.611,1.713c0.012,1.034-0.028,2.072,0.007,3.106
				c0.023,0.674-0.447,0.603-0.836,0.607c-0.395,0.003-0.862,0.053-0.809-0.62C252.914,150.016,252.879,149.413,252.881,148.688z"/>
			<path fill-rule="evenodd" clip-rule="evenodd" fill="#FFFFFF" d="M261.786,140.894c-2.986-0.009-5.372-2.394-5.36-5.357
				c0.014-2.956,2.442-5.344,5.408-5.318c2.949,0.026,5.29,2.404,5.282,5.366C267.107,138.539,264.736,140.902,261.786,140.894z"/>
			<path fill-rule="evenodd" clip-rule="evenodd" fill="#FFFFFF" d="M261.708,139.265c-2.037-0.025-3.686-1.722-3.652-3.759
				c0.035-2.035,1.752-3.71,3.761-3.67c2.089,0.042,3.695,1.711,3.667,3.81C265.459,137.688,263.787,139.291,261.708,139.265z"/>
		</g>
		
			<rect x="247.823" y="123.425" transform="matrix(-1 -0.002 0.002 -1 523.2672 279.8761)" fill="#FFFFFF" stroke="#FFFFFF" stroke-width="4" stroke-miterlimit="10" width="27.903" height="32.501"/>
	</g>
	
		<rect x="167.481" y="182.083" transform="matrix(1 0.002 -0.002 1 0.3844 -0.4314)" fill="#FFFFFF" stroke="#FFFFFF" stroke-width="4" stroke-miterlimit="10" width="95.999" height="19"/>
	
		<line fill="#FFFFFF" stroke="#FFFFFF" stroke-width="4" stroke-miterlimit="10" x1="167.424" y1="220.486" x2="235.923" y2="220.624"/>
	
		<line fill="#FFFFFF" stroke="#FFFFFF" stroke-width="4" stroke-miterlimit="10" x1="167.398" y1="232.986" x2="235.898" y2="233.123"/>
	
		<line fill="#FFFFFF" stroke="#FFFFFF" stroke-width="4" stroke-miterlimit="10" x1="167.372" y1="245.987" x2="235.872" y2="246.123"/>
</g>
<g>
	
		<rect x="272.297" y="139.317" transform="matrix(0.5853 -0.8108 0.8108 0.5853 -47.6367 372.8399)" fill="#FFFFFF" stroke="#FFFFFF" stroke-width="6" stroke-miterlimit="10" width="136.709" height="187.341"/>
	
		<rect x="231.334" y="186.519" transform="matrix(0.5853 -0.8108 0.8108 0.5853 -43.0897 307.7952)" fill="#FFFFFF" stroke="#FFFFFF" stroke-width="4" stroke-miterlimit="10" width="95.999" height="19"/>
	
		<line fill="#FFFFFF" stroke="#FFFFFF" stroke-width="4" stroke-miterlimit="10" x1="274.576" y1="253.016" x2="314.666" y2="197.473"/>
	
		<line fill="#FFFFFF" stroke="#FFFFFF" stroke-width="4" stroke-miterlimit="10" x1="284.711" y1="260.332" x2="324.803" y2="204.789"/>
	
		<line fill="#FFFFFF" stroke="#FFFFFF" stroke-width="4" stroke-miterlimit="10" x1="295.252" y1="267.94" x2="335.344" y2="212.397"/>
	<g>
		<g>
			<path fill-rule="evenodd" clip-rule="evenodd" fill="#FFFFFF" d="M339.307,193.288c-0.477-0.396-1.158-0.73-1.658-1.296
				c-0.965-1.09-1.254-2.401-1.18-3.805c0.135-2.595,1.215-4.827,2.785-6.833c1.314-1.682,2.891-3.062,4.928-3.822
				c1.828-0.681,3.564-0.632,5.129,0.683c0.158,0.134,0.334,0.245,0.502,0.366c0.455,0.327,0.908,0.654,1.361,0.982
				c0.713,0.515,0.691,1.082-0.043,1.609c-0.248,0.18-0.414,0.068-0.607-0.072c-0.736-0.537-1.51-1.028-2.209-1.609
				c-1.045-0.873-2.178-0.896-3.383-0.484c-1.379,0.472-2.521,1.316-3.518,2.353c-1.719,1.784-2.902,3.856-3.26,6.343
				c-0.102,0.7-0.082,1.4,0.119,2.09c0.178,0.618,0.5,1.121,1.033,1.496c0.848,0.594,1.666,1.231,2.527,1.807
				c0.561,0.375,0.229,0.715,0.004,1.033c-0.227,0.322-0.459,0.73-0.975,0.295C340.404,194.037,339.895,193.712,339.307,193.288z"/>
			<path fill-rule="evenodd" clip-rule="evenodd" fill="#FFFFFF" d="M338.176,181.508c-1.75,2.42-5.08,2.965-7.479,1.226
				c-2.393-1.736-2.914-5.103-1.162-7.495c1.742-2.379,5.039-2.893,7.439-1.157C339.369,175.813,339.904,179.118,338.176,181.508z"
				/>
			<path fill-rule="evenodd" clip-rule="evenodd" fill="#FFFFFF" d="M336.809,180.621c-1.209,1.64-3.551,1.988-5.184,0.771
				c-1.633-1.216-1.99-3.588-0.785-5.196c1.254-1.672,3.545-2.002,5.232-0.754C337.717,176.655,338.041,178.948,336.809,180.621z"/>
		</g>
		
			<rect x="323.227" y="164.556" transform="matrix(-0.5853 0.8108 -0.8108 -0.5853 681.1293 13.2403)" fill="#FFFFFF" stroke="#FFFFFF" stroke-width="4" stroke-miterlimit="10" width="27.904" height="32.501"/>
	</g>
	
		<rect x="304.31" y="239.193" transform="matrix(0.5853 -0.8108 0.8108 0.5853 -55.5374 388.8033)" fill="#FFFFFF" stroke="#FFFFFF" stroke-width="4" stroke-miterlimit="10" width="96" height="19"/>
	
		<line fill="#FFFFFF" stroke="#FFFFFF" stroke-width="4" stroke-miterlimit="10" x1="347.732" y1="304.584" x2="387.823" y2="249.043"/>
	
		<line fill="#FFFFFF" stroke="#FFFFFF" stroke-width="4" stroke-miterlimit="10" x1="357.867" y1="311.901" x2="397.958" y2="256.358"/>
	
		<line fill="#FFFFFF" stroke="#FFFFFF" stroke-width="4" stroke-miterlimit="10" x1="368.408" y1="319.51" x2="408.499" y2="263.967"/>
</g>
<text transform="matrix(1 0 0 1 160.3511 316.3945)" fill="#FFFFFF" font-family="'ShadowsIntoLight'" font-size="34.8426">FACEWORK</text>
</svg>
