<?xml version="1.0" encoding="utf-8"?>
<!-- Generator: Adobe Illustrator 16.0.0, SVG Export Plug-In . SVG Version: 6.00 Build 0)  -->
<!DOCTYPE svg PUBLIC "-//W3C//DTD SVG 1.1//EN" "http://www.w3.org/Graphics/SVG/1.1/DTD/svg11.dtd">
<svg version="1.1" id="Capa_1" xmlns="http://www.w3.org/2000/svg" xmlns:xlink="http://www.w3.org/1999/xlink" x="0px" y="0px"
	 width="595.28px" height="841.89px" viewBox="0 0 595.28 841.89" enable-background="new 0 0 595.28 841.89" xml:space="preserve">
<g>
	<path fill-rule="evenodd" clip-rule="evenodd" fill="#007CAB" d="M254.389,383.403c8.943-14.16,20.373-23.774,37.852-23.986
		c16.967-0.207,30.403,5.357,36.852,22.679c1.818-1.12,2.48-2.918,3.512-4.361c12.987-18.17,38.604-24.177,56.996-13.088
		c12.102,7.296,16.809,18.863,17.798,32.404c1.122,15.354,0.526,30.729,0.632,46.095c0.094,13.747-0.081,27.495,0.093,41.241
		c0.039,3.086-1.01,3.789-3.847,3.756c-10.997-0.128-21.996-0.141-32.993-0.005c-2.884,0.035-3.796-0.753-3.776-3.763
		c0.136-20.619,0.067-41.241,0.071-61.863c0.001-5.881-0.335-11.737-1.307-17.545c-1.337-7.995-5.62-12.527-12.546-13.289
		c-9.617-1.058-16.683,2.569-19.526,10.294c-3.428,9.312-3.501,19.131-3.64,28.849c-0.252,17.744-0.209,35.494-0.073,53.238
		c0.023,3.104-0.797,4.09-3.881,4.05c-10.746-0.139-21.495-0.107-32.242-0.013c-2.57,0.022-3.354-0.82-3.342-3.44
		c0.105-20.495,0.059-40.991,0.057-61.488c-0.001-6.004-0.315-11.981-1.225-17.929c-1.223-7.996-5.122-12.496-11.861-13.509
		c-9.281-1.394-16.925,2.134-20.039,9.537c-3.31,7.869-3.751,16.308-3.875,24.655c-0.288,19.367-0.292,38.741-0.151,58.11
		c0.025,3.44-1.05,4.162-4.188,4.117c-10.746-0.154-21.496-0.134-32.242-0.002c-2.654,0.032-3.375-0.819-3.37-3.424
		c0.081-39.242,0.094-78.485,0.016-117.728c-0.006-2.88,0.669-3.863,3.729-3.811c11.12,0.192,22.245,0.145,33.367,0.02
		c2.447-0.027,3.275,0.635,3.202,3.137C254.275,372.023,254.389,377.714,254.389,383.403z"/>
	<path fill-rule="evenodd" clip-rule="evenodd" fill="#007CAB" d="M74.274,492.84c-18.395-0.097-34.646-4.17-49.597-13.165
		c-2.267-1.363-2.98-2.631-2.227-5.381c2.409-8.788,4.515-17.661,6.569-26.541c0.708-3.06,1.549-3.285,3.944-1.238
		c10.996,9.396,23.666,14.685,38.26,14.931c3.396,0.058,6.767-0.276,9.904-1.665c7.162-3.168,8.048-11.207,1.764-15.905
		c-4.307-3.219-9.459-4.384-14.505-5.778c-8.677-2.396-17.137-5.231-25.034-9.751c-22.431-12.839-20.252-47.522,0.24-60.769
		c11.536-7.457,24.248-8.775,37.412-7.914c12.846,0.842,25.02,4.417,36.742,9.697c2.303,1.037,2.815,2.093,2.072,4.539
		c-2.433,8.003-4.706,16.06-6.789,24.161c-0.682,2.651-1.502,2.547-3.43,1.219c-7.933-5.467-16.613-9.077-26.251-10.202
		c-4.14-0.483-8.242-0.419-12.219,0.927c-3.272,1.107-5.729,3.11-6.211,6.784c-0.477,3.622,1.637,5.841,4.388,7.638
		c5.55,3.625,12.025,4.787,18.19,6.759c7.637,2.443,15.053,5.382,21.824,9.724c13.665,8.763,16.457,21.984,14.208,36.74
		c-2.789,18.302-18.026,31.814-37.967,34.433C81.469,492.62,77.364,493.008,74.274,492.84z"/>
	<path fill-rule="evenodd" clip-rule="evenodd" fill="#007CAB" d="M516.979,431.25c0.002-10.994-0.08-21.988,0.06-32.98
		c0.035-2.796-0.496-4.08-3.65-3.816c-3.598,0.301-7.242-0.021-10.861,0.099c-2.035,0.068-2.888-0.501-2.862-2.707
		c0.1-8.619,0.093-17.241-0.007-25.859c-0.024-2.142,0.692-2.832,2.803-2.762c3.993,0.133,7.996-0.048,11.99,0.067
		c1.963,0.057,2.608-0.62,2.568-2.58c-0.109-5.37,0.035-10.745-0.083-16.113c-0.042-1.921,0.617-2.938,2.404-3.633
		c11.625-4.524,23.238-9.079,34.807-13.747c2.788-1.125,3.111-0.019,3.092,2.396c-0.079,9.994,0.077,19.99-0.099,29.981
		c-0.051,2.936,0.746,3.948,3.73,3.735c3.604-0.259,7.244,0.027,10.863-0.099c2.018-0.07,2.896,0.431,2.867,2.673
		c-0.112,8.618-0.102,17.24-0.007,25.859c0.022,2.09-0.573,2.881-2.743,2.799c-3.866-0.146-7.746,0.058-11.615-0.066
		c-2.134-0.068-3.096,0.367-3.074,2.842c0.133,15.115-0.018,30.232,0.158,45.347c0.113,9.746,4.617,14.203,14.379,14.21
		c3.425,0.002,4.494,0.911,4.382,4.383c-0.254,7.862-0.167,15.74-0.025,23.608c0.044,2.479-0.789,3.26-3.207,3.24
		c-11.367-0.095-22.742-0.302-34.103-0.004c-12.608,0.33-21.685-11.702-21.755-23.519
		C516.926,453.488,516.978,442.369,516.979,431.25z"/>
	<path fill-rule="evenodd" clip-rule="evenodd" fill="#46B063" d="M434.547,425.804c-0.006-19.605,0.055-39.211-0.07-58.815
		c-0.02-2.938,0.763-3.841,3.749-3.796c11.236,0.168,22.479,0.189,33.714-0.01c3.18-0.056,3.656,1.168,3.652,3.922
		c-0.069,39.085-0.073,78.171,0.013,117.257c0.006,2.771-0.716,3.661-3.557,3.622c-11.112-0.154-22.229-0.184-33.339,0.006
		c-3.229,0.056-4.267-0.728-4.237-4.119C434.639,464.516,434.553,445.16,434.547,425.804z"/>
	<path fill-rule="evenodd" clip-rule="evenodd" fill="#46B063" d="M181.458,426.15c0,19.243-0.058,38.487,0.062,57.729
		c0.018,2.968-0.587,4.184-3.863,4.127c-11.117-0.191-22.241-0.14-33.361-0.034c-2.724,0.025-3.943-0.483-3.934-3.661
		c0.108-39.11,0.096-78.222,0.006-117.333c-0.007-2.967,0.896-3.828,3.832-3.788c11.119,0.15,22.243,0.162,33.361-0.017
		c3.22-0.052,3.99,1.111,3.974,4.123c-0.107,19.617-0.055,39.236-0.055,58.854C181.472,426.15,181.464,426.15,181.458,426.15z"/>
	<path fill-rule="evenodd" clip-rule="evenodd" fill="#46B063" d="M454.659,545.511c-12.151-0.053-21.873-9.875-21.777-22.004
		c0.097-12.115,9.948-21.78,22.106-21.686c12.057,0.093,21.697,10.01,21.584,22.199
		C476.461,535.894,466.601,545.564,454.659,545.511z"/>
	<path fill-rule="evenodd" clip-rule="evenodd" fill="#46B063" d="M186.521,325.62c0.038,12.336-9.472,21.939-21.712,21.925
		c-11.934-0.014-21.871-9.749-21.957-21.51c-0.089-12.211,9.846-22.162,22.1-22.132C176.963,303.93,186.485,313.518,186.521,325.62z
		"/>
	<path fill-rule="evenodd" clip-rule="evenodd" fill="#46B063" d="M224.882,285.343c-10.56-0.16-19.154-9.033-18.967-19.582
		c0.184-10.318,9.097-18.916,19.464-18.773c10.563,0.144,19.438,9.144,19.177,19.446
		C244.287,277.079,235.52,285.504,224.882,285.343z"/>
	<path fill-rule="evenodd" clip-rule="evenodd" fill="#46B063" d="M409.924,581.657c-0.071,10.629-8.813,19.206-19.436,19.071
		c-10.382-0.132-18.98-8.869-18.934-19.239c0.049-10.983,8.561-19.244,19.676-19.093
		C401.841,562.539,409.996,570.942,409.924,581.657z"/>
	<path fill-rule="evenodd" clip-rule="evenodd" fill="#46B063" d="M331.949,213.704c-0.004,9.277-7.309,16.489-16.669,16.458
		c-8.991-0.031-16.403-7.438-16.419-16.409c-0.016-9.278,7.268-16.59,16.534-16.599
		C324.701,197.146,331.953,204.396,331.949,213.704z"/>
	<path fill-rule="evenodd" clip-rule="evenodd" fill="#46B063" d="M316.174,629.564c0.07,9.008-7.296,16.618-16.229,16.77
		c-9.078,0.152-16.676-7.338-16.835-16.6c-0.155-8.953,7.222-16.499,16.293-16.667C308.585,612.895,316.103,620.291,316.174,629.564
		z"/>
	<path fill-rule="evenodd" clip-rule="evenodd" fill="#46B063" d="M447.521,211.044c-0.004,7.388-5.517,12.914-12.997,13.027
		c-7.123,0.108-12.933-5.768-12.941-13.091c-0.009-7.318,5.667-12.96,13.038-12.958
		C442.051,198.023,447.523,203.547,447.521,211.044z"/>
	<path fill-rule="evenodd" clip-rule="evenodd" fill="#46B063" d="M166.679,627.986c-0.017-7.446,5.452-12.975,12.893-13.035
		c7.287-0.058,13.194,5.713,13.146,12.842c-0.05,7.397-5.675,13.061-12.983,13.071C172.351,640.874,166.696,635.295,166.679,627.986
		z"/>
	<path fill-rule="evenodd" clip-rule="evenodd" fill="#48B064" d="M503.904,258.282c4.051-0.046,7.787,3.818,7.734,7.999
		c-0.052,4.177-3.399,7.574-7.573,7.687c-4.591,0.123-8.161-3.357-8.098-7.893C496.028,261.756,499.517,258.332,503.904,258.282z"/>
	<path fill-rule="evenodd" clip-rule="evenodd" fill="#48B064" d="M113.167,562.386c4.384,0.048,7.813,3.497,7.774,7.818
		c-0.039,4.261-3.607,7.68-7.97,7.639c-4.462-0.043-7.749-3.385-7.707-7.837C105.305,565.585,108.676,562.336,113.167,562.386z"/>
</g>
</svg>
