<?xml version="1.0" encoding="utf-8"?>
<!-- Generator: Adobe Illustrator 16.0.0, SVG Export Plug-In . SVG Version: 6.00 Build 0)  -->
<!DOCTYPE svg PUBLIC "-//W3C//DTD SVG 1.1//EN" "http://www.w3.org/Graphics/SVG/1.1/DTD/svg11.dtd">
<svg version="1.1" id="Capa_1" xmlns="http://www.w3.org/2000/svg" xmlns:xlink="http://www.w3.org/1999/xlink" x="0px" y="0px"
	 width="595.28px" height="841.89px" viewBox="0 0 595.28 841.89" enable-background="new 0 0 595.28 841.89" xml:space="preserve">
<g>
	<path fill-rule="evenodd" clip-rule="evenodd" fill="#E5B330" d="M284.99,320.89c0.601,1.495,1.979,0.884,3.029,1.075
		c21.069,3.833,36.159,21.452,35.771,42.435c-0.442,23.897-17.27,38.859-35.717,42.258c-26.101,4.808-44.914-14.609-48.772-35.255
		c-4.338-23.212,11.541-45.179,35.163-49.388c1.194-0.213,2.767,0.52,3.528-1.124C280.324,320.89,282.657,320.89,284.99,320.89z"/>
	<path fill-rule="evenodd" clip-rule="evenodd" fill="#E5B330" d="M326.311,425.328c-9.232,4.094-17.289,9.037-23.447,16.499
		c-7.813,9.467-12.656,20.17-13.276,32.645c-0.361,7.266-0.561,7.257-7.745,7.258c-15.973,0.001-31.945-0.021-47.917,0.007
		c-11.418,0.021-20.736-3.861-25.245-14.99c-4.44-10.959-0.875-20.471,6.84-28.766c3.544-3.811,7.631-6.967,12.255-9.312
		c22.235-11.275,45.465-16.427,70.377-11.399c7.807,1.575,15.718,2.635,23.277,5.297
		C322.99,423.117,324.547,423.604,326.311,425.328z"/>
	<path fill-rule="evenodd" clip-rule="evenodd" fill="#4D4D4D" d="M390.142,478.714c-0.016,24.729-19.546,44.477-44.187,44.678
		c-25.06,0.205-45.135-19.756-45.132-44.873c0.004-24.98,19.661-44.746,44.566-44.809
		C370.649,433.648,390.158,453.266,390.142,478.714z"/>
	<path fill-rule="evenodd" clip-rule="evenodd" fill="#FAFAFA" d="M380.986,478.383c-0.133,3.312-15.291,19.146-18.261,19.386
		c-1.665,0.135-2.921-0.732-3.688-2.085c-1.022-1.8-0.647-3.541,0.794-5.009c3.029-3.083,5.966-6.269,9.157-9.173
		c2.428-2.209,2.51-3.786-0.069-6c-3.146-2.701-5.966-5.79-8.842-8.793c-1.822-1.903-2.304-4.132-0.406-6.231
		c2.078-2.297,4.273-1.332,6.076,0.412c4.543,4.395,8.99,8.891,13.428,13.393C380.363,475.488,381.216,476.928,380.986,478.383z"/>
	<path fill-rule="evenodd" clip-rule="evenodd" fill="#FBFBFB" d="M310.152,478.616c-0.067-2.024,0.86-3.38,2.054-4.581
		c4.209-4.235,8.417-8.473,12.668-12.665c1.86-1.835,3.875-3.392,6.404-0.993c2.695,2.557,1.322,4.719-0.74,6.783
		c-2.58,2.581-4.979,5.382-7.788,7.685c-3.372,2.765-2.9,4.835,0.174,7.422c2.782,2.341,5.222,5.093,7.774,7.701
		c1.885,1.927,3.137,4.003,0.813,6.462c-2.374,2.511-4.467,1.296-6.401-0.617c-4.363-4.315-8.692-8.667-13.023-13.016
		C310.882,481.587,309.98,480.222,310.152,478.616z"/>
	<path fill-rule="evenodd" clip-rule="evenodd" fill="#FBFBFB" d="M356.509,462.946c-0.133,0.607-0.157,1.13-0.357,1.574
		c-4.749,10.59-9.464,21.196-14.327,31.733c-0.982,2.128-3.026,2.493-5.129,1.532c-2.262-1.035-2.598-3.058-1.817-5.051
		c1.511-3.857,3.296-7.606,4.995-11.389c2.99-6.654,5.995-13.303,9.005-19.947c0.948-2.093,2.53-2.968,4.835-2.482
		C356.019,459.402,356.314,461.173,356.509,462.946z"/>
</g>
<text transform="matrix(1 0 0 1 92.0005 600.4937)" fill="#E6B430" font-family="'ShadowsIntoLight'" font-size="110.9345">Developer</text>
</svg>
