<?xml version="1.0" encoding="utf-8"?>
<!-- Generator: Adobe Illustrator 16.0.0, SVG Export Plug-In . SVG Version: 6.00 Build 0)  -->
<!DOCTYPE svg PUBLIC "-//W3C//DTD SVG 1.1//EN" "http://www.w3.org/Graphics/SVG/1.1/DTD/svg11.dtd">
<svg version="1.1" id="Capa_1" xmlns="http://www.w3.org/2000/svg" xmlns:xlink="http://www.w3.org/1999/xlink" x="0px" y="0px"
	 width="612px" height="792px" viewBox="0 0 612 792" enable-background="new 0 0 612 792" xml:space="preserve">
<g>
	<path fill-rule="evenodd" clip-rule="evenodd" fill="#ECBB18" d="M199.32,437.779c-1.917,0.001-3.368-0.789-4.159-2.695
		c-1.611-2.354-1.725-5.104-1.725-7.816c-0.027-57.895-0.013-115.79-0.032-173.684c-0.002-5.424,1.778-9.822,6.177-12.888
		c3.999-1.662,8.073-2.542,12.452-2.54c63.117,0.052,126.235,0.011,189.353-0.061c4.346-0.004,8.752-0.013,12.27,2.881
		c4.081,3.358,6.274,7.909,6.271,13.589c-0.028,56.956,0.011,113.911-0.009,170.866c-0.001,2.658,0.219,5.522-2.276,7.396
		c-0.625,0.364-1.174,0.264-1.646-0.294c-1.39-2.29-1.113-4.879-1.127-7.39c-0.049-9.358-0.037-18.72-0.01-28.08
		c0.013-4.877,0.063-9.702-1.638-14.414c-0.991-2.751-1.109-5.931-0.148-8.655c2.207-6.252,1.753-12.672,1.768-19.082
		c0.031-13.063,0.564-26.163-0.166-39.184c-0.592-10.528,0.649-21.122-1.702-31.642c-1.204-5.376-0.976-11.278,0.771-16.784
		c0.893-2.815,0.741-5.253-1.253-7.587c-1.918-2.244-2.553-5.003-0.455-7.395c1.655-1.89,0.931-2.626-0.448-4.131
		c-3.993-4.358-8.526-6.586-14.424-5.902c-3.116,0.362-6.313,0.206-9.417-0.037c2.729,1.102,7.688-1.065,7.95,3.721
		c0.296,5.417-4.934,3.793-8.605,4.981c2.351,1.346,4.182,1.25,5.992,0.203c1.912-1.105,3.968-3.224,5.816-0.503
		c1.625,2.393,1.548,5.156-0.927,7.296c-2.316,1.062-4.767,0.766-7.169,0.767c-49.684,0.021-99.368-0.045-149.052,0.096
		c-6.218,0.019-12.012-2.452-18.233-2.244c-9.438,0.316-11.118,1.838-11.12,11.575c-0.009,46.786,0.003,93.573-0.018,140.359
		c-0.001,2.712,0.338,5.473-0.669,8.088c-1.28,2.338-3.227,2.422-5.253,1.408c-2.092-1.047-2.735-3.167-2.615-5.389
		c0.249-4.645,1-9.246,0.842-13.932c-0.24-7.126-0.267-7.238-6.806-8.909c-0.719-0.183-1.084-0.956-1.446-1.57
		c0.47,10.332,0.193,20.699,0.191,31.063c-0.002,4.349,0.303,8.468,2.747,12.23C200.625,433.422,201.502,435.711,199.32,437.779z"/>
	<path fill-rule="evenodd" clip-rule="evenodd" fill="#EABA11" d="M199.32,437.779c0.183-1.541,0.693-3.306-0.483-4.477
		c-4.282-4.266-3.811-9.698-3.771-15.117c0.074-10.327,0-20.654,0.043-30.979c0.007-1.791-0.448-3.756,0.813-5.456
		c2.041,1.235,1.28,2.959,1.359,4.359c0.147,2.602,0.791,4.115,3.162,1.728c2.257-2.271,3.049-0.715,3.975,1.272
		c3.117,6.69,2.13,13.667,1.099,20.536c-0.933,6.205-0.403,7.37,5.203,7.905c2.777,5.933,7.787,4.298,12.51,4.278
		c31.38-0.139,62.763-0.072,94.143-0.049c3.704,0.001,7.431-0.374,11.104,0.443c3.673,1.92,6.869,4.566,9.691,7.642
		c5.469,5.955,12.049,8.531,19.921,8.335c9.063-0.228,18.132-0.111,27.199-0.04c4.618-0.12,9.241-0.174,13.854-0.019
		c4.568,0.156,8.78-0.066,11.88-4.437c1.236-1.743,3.296-2.536,5.402-0.953c0.406,0.026,0.813,0.051,1.219,0.076
		c-0.797,5.15-4.839,9.217-10.011,9.499c-5.382,0.294-10.786,0.199-16.18,0.198c-60.286-0.016-120.571,0.001-180.856-0.171
		C206.543,442.342,201.291,444.065,199.32,437.779z"/>
	<path fill-rule="evenodd" clip-rule="evenodd" fill="#767676" d="M121.086,504.38c0.745-0.005,1.488-0.003,2.231-0.005
		c8.843-0.012,9.895,1.449,7.555,10.491c-2.115,8.179-8.609,14.101-16.72,15.007c-9.998,1.116-17.945-2.673-23.214-11.688
		c-5.387-9.214-3.73-20.873,3.652-28.379c7.359-7.48,18.796-9.104,27.296-3.698c1.501,0.954,4.368,1.703,2.77,4.608
		c-1.375,2.502-3.023,2.955-5.908,1.158c-6.995-4.359-14.709-2.91-19.788,2.921c-5.024,5.765-5.876,14.059-2.112,20.562
		c3.952,6.827,11.578,9.915,18.836,7.588c2.341-0.75,4.463-1.946,6.173-3.823c1.71-1.878,3.524-4.173,2.715-6.665
		c-0.915-2.818-3.922-0.888-5.873-1.558c-2.747-0.944-7.872,2.668-7.96-3.053c-0.096-6.187,5.292-2.433,8.125-3.428
		C119.534,504.185,120.342,504.384,121.086,504.38z"/>
	<path fill-rule="evenodd" clip-rule="evenodd" fill="#767676" d="M225.133,517.418c0,4.479,0.221,8.971-0.054,13.433
		c-0.371,6.009-3.411,10.228-8.908,12.171c-5.648,1.997-10.648,0.576-14.804-3.841c-1.22-1.296-3.177-2.82-1.052-4.835
		c1.643-1.557,3.513-2.123,5.241,0.235c4.127,5.639,12.103,3.288,13.222-2.454c0.218-1.126,0.846-2.286,0.089-3.351
		c-1.004-1.409-1.989-0.043-2.924,0.247c-6.466,2.012-12.166,0.202-15.818-5.084c-3.678-5.327-3.59-12.532,0.223-18.027
		c3.801-5.479,9.123-7.174,15.736-5.025c0.866,0.281,1.941,0.998,2.587,0.706c7.068-3.19,6.792,1.604,6.629,6.479
		c-0.104,3.112-0.019,6.23-0.019,9.346C225.23,517.418,225.183,517.418,225.133,517.418z"/>
	<path fill-rule="evenodd" clip-rule="evenodd" fill="#777777" d="M484.49,514.933c0-3.507-0.005-7.015,0.003-10.524
		c0.005-1.594,0.551-4.171,2.013-3.172c4.201,2.872,7.773-1.936,11.033-0.709c6.436,2.422,12.285,1.646,18.68,0.008
		c4.521-1.161,8.015,2.371,8.506,7.209c0.623,6.168,0.363,12.437,0.457,18.662c0.023,1.556-0.548,2.58-2.258,2.586
		c-1.971,0.008-2.573-1.177-2.576-2.981c-0.004-4.287,0.043-8.576-0.025-12.861c-0.064-3.901-0.554-7.726-5.381-7.969
		c-4.647-0.235-6.727,3.065-7.279,7.225c-0.51,3.831-0.166,7.775-0.399,11.658c-0.11,1.868,1.065,4.844-2.252,4.879
		c-3.664,0.04-2.48-3.152-2.569-5.229c-0.159-3.696-0.018-7.403-0.1-11.106c-0.084-3.74-0.74-7.206-5.275-7.425
		c-4.354-0.209-6.618,2.695-7.164,6.654c-0.581,4.208-0.294,8.543-0.469,12.817c-0.074,1.816,0.526,4.199-2.375,4.312
		c-2.938,0.116-2.521-2.213-2.551-4.093C484.454,521.559,484.492,518.246,484.49,514.933z"/>
	<path fill-rule="evenodd" clip-rule="evenodd" fill="#777777" d="M162.893,515.243c-0.182,8.752-6.317,14.897-14.759,14.79
		c-8.233-0.107-14.379-6.738-14.271-15.4c0.104-8.539,6.998-15.167,15.468-14.87C157.074,500.033,163.065,506.872,162.893,515.243z"
		/>
	<path fill-rule="evenodd" clip-rule="evenodd" fill="#777777" d="M165.811,515.056c0.001-8.667,6.16-15.252,14.329-15.314
		c8.099-0.063,14.703,6.725,14.672,15.08c-0.031,8.7-6.175,15.166-14.451,15.208C171.941,530.074,165.809,523.765,165.811,515.056z"
		/>
	<path fill-rule="evenodd" clip-rule="evenodd" fill="#777777" d="M253.119,499.781c2.91-0.228,5.526,1.186,7.87,3.238
		c5.685,4.98,5.314,7.894-1.332,10.809c-3.262,1.432-6.525,2.864-9.793,4.279c-1.029,0.445-2.486,0.733-2.53,1.981
		c-0.051,1.439,1.247,2.292,2.441,2.927c3.126,1.653,6.274,1.612,8.859-0.869c2.357-2.264,4.285-1.333,5.661,0.628
		c1.7,2.424-1.059,3.374-2.256,4.401c-4.566,3.925-12.303,3.806-17.25,0.011c-4.853-3.724-6.836-10.746-4.905-17.363
		C241.663,503.729,246.737,499.8,253.119,499.781z"/>
	<path fill-rule="evenodd" clip-rule="evenodd" fill="#787878" d="M298.232,530.072c-8.553-0.348-15.119-4.2-18.468-12.617
		c-3.346-8.411-2.419-16.583,3.581-23.424c5.982-6.82,13.529-8.55,21.92-5.707c1.73,0.587,3.36,1.664,4.861,2.772
		c1.298,0.958,3.01,2.038,1.318,4.184c-1.462,1.856-2.713,1.04-4.31,0.024c-7.567-4.809-15.606-3.689-20.511,2.686
		c-4.723,6.14-4.435,16.389,0.622,22.134c5.337,6.063,13.209,6.663,20.716,1.268c1.837-1.319,3.214-2.019,4.69,0.033
		c1.791,2.49-0.499,3.496-1.857,4.537C307.088,528.808,302.884,530.203,298.232,530.072z"/>
	<path fill-rule="evenodd" clip-rule="evenodd" fill="#787878" d="M351.427,518.927c0,1.751-0.006,3.503,0,5.256
		c0.011,3.999-0.421,7.285-5.159,3.438c-1.611-1.311-2.239,0.622-3.27,1.091c-4.435,2.019-8.688,2.108-12.541-1.267
		c-2.839-2.485-3.86-5.846-2.605-9.476c1.747-5.045,5.75-6.819,10.573-6.977c1.112-0.036,2.261,0.225,3.333,0.011
		c1.431-0.283,3.534,2.214,4.192-0.565c0.581-2.463-1.542-3.85-3.433-4.693c-2.99-1.332-5.971-0.838-8.281,1.527
		c-1.656,1.695-3.16,1.292-4.358,0.028c-1.842-1.937,0.201-3.19,1.324-4.214c3.736-3.408,8.214-3.428,12.64-2.175
		c4.363,1.235,6.899,4.527,7.29,9.276c0.237,2.892,0.043,5.823,0.043,8.737C351.26,518.925,351.343,518.927,351.427,518.927z"/>
	<path fill-rule="evenodd" clip-rule="evenodd" fill="#787878" d="M449.88,515.196c-0.034,8.591-5.964,14.916-13.921,14.852
		c-8.018-0.067-13.847-6.442-13.751-15.041c0.098-8.666,6.078-15.07,13.923-14.908C444.245,500.268,449.913,506.492,449.88,515.196z
		"/>
	<path fill-rule="evenodd" clip-rule="evenodd" fill="#787878" d="M480.298,515.471c-0.169,8.841-5.873,14.745-14.079,14.572
		c-7.899-0.167-13.716-6.69-13.605-15.259c0.112-8.661,5.943-14.593,14.25-14.495C475.011,500.387,480.47,506.555,480.298,515.471z"
		/>
	<path fill-rule="evenodd" clip-rule="evenodd" fill="#787878" d="M365.555,530.063c-2.759-0.034-6.229-1.124-8.805-4.353
		c-0.893-1.118-2.443-2.312-0.939-3.944c1.389-1.51,2.989-1.455,4.302,0.262c2.047,2.674,4.621,3.814,7.863,3.115
		c1.776-0.383,3.171-1.393,3.479-3.309c0.344-2.138-1.14-3.186-2.8-3.763c-2.635-0.918-5.401-1.461-7.971-2.534
		c-3.106-1.297-5.447-3.585-5.266-7.43c0.182-3.788,2.667-5.813,5.788-7.089c4.087-1.673,8.08-1.269,11.731,1.173
		c1.402,0.939,3.781,2.109,2.373,4.438c-1.199,1.985-3.1,1.51-4.805,0.03c-2.143-1.86-4.563-2.443-7.271-1.241
		c-1.288,0.57-2.354,1.295-2.438,2.845c-0.085,1.584,0.887,2.518,2.233,2.938c1.952,0.61,3.944,1.083,5.909,1.653
		c5.801,1.681,8.22,4.776,7.602,9.685C375.988,526.922,371.975,529.975,365.555,530.063z"/>
	<path fill-rule="evenodd" clip-rule="evenodd" fill="#787878" d="M390.273,500.28c2.655-0.049,5.272,0.233,7.36,2.123
		c1.175,1.067,3.248,2.211,2.197,4.135c-1.156,2.118-3.17,1.64-4.77,0.166c-1.865-1.716-4.021-1.867-6.292-1.504
		c-1.771,0.282-3.342,1.054-3.447,3.161c-0.094,1.856,1.318,2.715,2.802,3.168c2.313,0.706,4.7,1.159,6.999,1.911
		c3.729,1.222,6.087,3.708,6.005,8.066c-0.083,4.368-2.643,6.789-6.31,7.89c-5.19,1.561-9.985,0.822-13.643-3.81
		c-0.857-1.084-2.458-2.278-0.735-3.931c1.563-1.499,2.986-1.151,4.275,0.521c1.75,2.273,3.96,3.432,6.837,3.089
		c2.23-0.267,4.116-1.129,4.399-3.628c0.275-2.407-1.61-3.317-3.444-3.909c-1.415-0.458-2.911-0.636-4.347-1.036
		c-5.903-1.646-8.843-5.031-8.168-9.345C380.647,503.166,384.773,500.327,390.273,500.28z"/>
	<path fill-rule="evenodd" clip-rule="evenodd" fill="#7B7B7B" d="M229.668,506.64c0.001-6.021,0.028-12.042-0.012-18.063
		c-0.015-2.328,0.099-4.2,3.152-4.159c2.911,0.039,3.295,1.733,3.29,4.139c-0.03,12.043-0.022,24.086-0.011,36.128
		c0.002,2.56-0.291,4.563-3.568,4.462c-3.242-0.1-2.833-2.354-2.842-4.441C229.647,518.683,229.665,512.661,229.668,506.64z"/>
	<path fill-rule="evenodd" clip-rule="evenodd" fill="#F9F2BB" d="M199.581,240.696c-6.156,7.097-5.685,15.801-5.674,24.524
		c0.057,51.411,0.022,102.824-0.086,154.236c-0.011,5.283,0.782,10.431,1.341,15.628c-3.766-0.776-2.341-4.002-2.354-6.166
		c-0.141-22.047-0.127-44.095-0.129-66.144c-0.003-36.485,0.011-72.971,0.026-109.459c0.002-3.478,0.357-6.699,2.054-10.007
		C196.076,240.739,197.502,240.604,199.581,240.696z"/>
	<path fill-rule="evenodd" clip-rule="evenodd" fill="#808080" d="M322.958,508.442c0,5.62,0.022,11.24-0.013,16.862
		c-0.011,1.716,0.2,3.679-2.311,3.76c-2.319,0.074-2.672-1.453-2.666-3.421c0.029-11.442,0.032-22.885,0.018-34.328
		c-0.003-1.974,0.388-3.48,2.707-3.383c2.318,0.095,2.575,1.773,2.578,3.636c0.009,5.625,0.003,11.249,0.003,16.874
		C323.169,508.442,323.064,508.442,322.958,508.442z"/>
	<path fill-rule="evenodd" clip-rule="evenodd" fill="#7E7E7E" d="M405.372,515.025c0.004-3.703-0.031-7.408,0.016-11.111
		c0.033-2.618,2.501-4.139,3.483-2.582c2.271,3.594,3.639,1.162,5.511,0.138c0.962-0.524,2.109-0.934,3.175-0.938
		c1.474-0.006,3.788-0.943,3.831,1.826c0.026,1.8-1.011,3.21-3.176,3.29c-6.153,0.221-7.662,4.421-7.579,9.946
		c0.049,3.313-0.01,6.627,0.003,9.941c0.009,1.931-0.312,3.511-2.656,3.516c-2.354,0.004-2.647-1.55-2.624-3.499
		C405.395,522.043,405.367,518.533,405.372,515.025z"/>
	<path fill-rule="evenodd" clip-rule="evenodd" fill="#EBB708" d="M416.423,432.752c-2.537-0.314-4.711,1.021-5.481,3.124
		c-1.47,4.017-4.257,4.014-7.485,3.951c-6.09-0.119-12.185-0.043-18.275-0.046c-1.216-4.049-3.408-7.475-5.931-10.76
		c-1.643-2.137-3.013-4.629,0.292-6.712c4.606-0.987,9.254-0.603,13.871-0.365c5.698,0.293,5.78,0.403,5.808-5.835
		c0.064-13.806,0.009-27.613,0.029-41.421c0.003-2.719-0.127-5.447,0.303-8.149c4.408-21.663,5.665-43.449,2.721-65.473
		c-1.444-10.802-0.324-21.75-1.134-32.606c-0.127-1.687,0.787-2.948,1.789-4.136c1.845-2.193,0.187-2.979-1.406-3.781
		c-1.406-0.784-2.486-1.866-2.951-3.512c-0.009-1.364,0.008-2.728-0.033-4.091c-0.029-0.961-0.012-2.013-1.063-2.464
		c-1.076-0.462-1.669,0.156-2.182,1.113c-2.291,4.284-5.919,1.852-8.959,1.702c-1.813-0.091-2.979-2.132-2.623-3.875
		c0.47-2.312,2.267-1.015,3.655-0.765c1.271,0.228,2.589,0.209,3.886,0.202c1.771-0.01,3.649-0.377,3.633-2.644
		c-0.021-2.742-2.34-1.703-3.817-2.025c-2.912-0.634-8.213,1.622-8.217-1.897c-0.003-3.398,5.245-1.047,8.128-1.495
		c2.729-0.424,5.581,0.094,8.354-0.134c4.701-0.388,8.853,0.151,11.469,5.024c0.478,0.886,1.705,1.656,2.695,1.84
		c1.943,0.364,3.025,1.089,2.947,3.36c-0.079,2.345-1.672,1.535-2.858,2.12c-3.111,1.531-2.096,4.681,0.09,5.767
		c3.649,1.815,3.147,4.496,2.295,7.244c-2.402,7.744-3.162,15.355,0.197,23.042c0.504,1.151,0.509,2.756,0.233,4.032
		c-1.666,7.789,0.422,15.529,0.125,23.309c-0.32,8.368-0.073,16.759-0.073,25.138c0,8.186-0.237,16.383,0.089,24.554
		c0.191,4.751-3.13,8.485-2.484,13.431c0.499,3.838,2.686,6.965,2.558,11.139C416.182,404.677,416.434,418.718,416.423,432.752z"/>
	<path fill-rule="evenodd" clip-rule="evenodd" fill="#DFC122" d="M400.92,365.979c-0.026,17.099-0.041,34.196-0.085,51.294
		c-0.019,7.072-0.378,7.041-6.812,6.338c-5.133-0.561-10.371-0.085-15.564-0.069c-2.005,1.769-4.443,1.719-6.84,1.729
		c-11.627,0.056-23.255,0.017-34.883,0.028c-2.634,0.003-5.146-0.387-7.455-1.792c-35.755-0.025-71.51-0.055-107.264-0.068
		c-1.109,0-2.265-0.021-3.316,0.279c-5.555,1.588-7.757-0.081-7.982-6.168c0.003-50.526,0.004-101.053,0.009-151.58
		c0.001-8.254,2.846-11.778,10.584-11.146c59.047,4.826,118.181,1.011,177.26,2.207c1.42,0.102,2.194,0.878,2.27,2.385
		c3.031,4.265,0.806,9.081,0.86,13.499c0.286,22.717,1.352,45.425,0.957,68.152C402.513,349.414,401.49,357.676,400.92,365.979z"/>
	<path fill-rule="evenodd" clip-rule="evenodd" fill="#E5A70D" d="M329.281,423.508c16.393,0.011,32.785,0.021,49.178,0.032
		c-0.355,4.556,3.619,6.488,5.628,9.481c1.634,2.434,1.722,4.329,1.093,6.76c-9.438,0.008-18.88-0.175-28.311,0.083
		c-7.836,0.215-14.396-2.427-19.465-8.597C334.971,428.305,331.223,426.959,329.281,423.508z"/>
	<path fill-rule="evenodd" clip-rule="evenodd" fill="#F9F9F9" d="M219.597,514.737c0.076,5.137-3.098,9.216-7.284,9.359
		c-4.638,0.159-8.313-3.76-8.37-8.922c-0.058-5.278,3.367-9.343,7.941-9.427C216.06,505.67,219.522,509.705,219.597,514.737z"/>
	<path fill-rule="evenodd" clip-rule="evenodd" fill="#F9F9F9" d="M156.67,514.766c-0.126,5.508-3.879,9.56-8.625,9.307
		c-4.555-0.241-7.886-4.385-7.711-9.592c0.17-5.11,3.937-8.948,8.551-8.71C153.086,505.988,156.774,510.245,156.67,514.766z"/>
	<path fill-rule="evenodd" clip-rule="evenodd" fill="#FAFAFA" d="M171.976,514.36c0.253-4.841,4.465-8.956,8.794-8.593
		c4.603,0.386,7.88,4.603,7.56,9.722c-0.324,5.181-4.113,8.931-8.676,8.586C175.265,523.744,171.72,519.259,171.976,514.36z"/>
	<path fill-rule="evenodd" clip-rule="evenodd" fill="#E8E8E8" d="M257.681,508.32c-0.213,1.124-1.06,1.472-1.945,1.84
		c-1.553,0.648-3.029,1.694-4.632,1.971c-1.756,0.303-4.383,3.311-5.119,0.463c-0.81-3.137,1.964-5.618,5.064-6.631
		c2.444-0.798,4.793-0.703,6.445,1.817C257.597,507.935,257.625,508.143,257.681,508.32z"/>
	<path fill-rule="evenodd" clip-rule="evenodd" fill="#F6F6F6" d="M337.834,525.223c-2.151-0.268-5.042-0.925-4.968-4.346
		c0.108-4.888,3.974-5.653,7.563-5.686c2.358-0.022,5.625-0.279,5.63,3.764C346.063,521.919,341.764,525.267,337.834,525.223z"/>
	<path fill-rule="evenodd" clip-rule="evenodd" fill="#FBFBFB" d="M444.648,515.322c-0.098,5.886-3.732,10.004-8.752,9.912
		c-5.016-0.091-8.468-4.273-8.448-10.233c0.021-5.821,3.68-9.937,8.783-9.869C441.231,505.197,444.745,509.451,444.648,515.322z"/>
	<path fill-rule="evenodd" clip-rule="evenodd" fill="#FBFBFB" d="M466.496,505.13c5.013-0.011,8.929,4.385,8.872,9.961
		c-0.06,5.661-3.893,10.07-8.778,10.098c-5.11,0.028-8.7-4.065-8.748-9.975C457.795,509.341,461.396,505.144,466.496,505.13z"/>
	<path fill-rule="evenodd" clip-rule="evenodd" fill="#ECBB18" d="M400.92,365.979c-0.026-35.521-0.054-71.041-0.08-106.562
		c1.113,0.012,2.228,0.008,3.34,0.042c1.407,0.045,2.562,0.599,3.028,2.082c0.543,1.729-0.606,2.62-1.853,3.049
		c-3.414,1.174-2.741,3.562-2.459,6.468c0.765,7.899-0.434,15.867,0.743,23.814c2.243,15.133,2.081,30.437,1.439,45.644
		C404.72,349.051,402.371,357.494,400.92,365.979z"/>
	<path fill-rule="evenodd" clip-rule="evenodd" fill="#ECBB18" d="M411.483,308.285c0,10.764,0,21.527,0,32.292
		c-0.373,0.006-0.745,0.011-1.118,0.018c0-10.766,0-21.532,0-32.298C410.738,308.293,411.11,308.289,411.483,308.285z"/>
	<path fill-rule="evenodd" clip-rule="evenodd" fill="#ECBB18" d="M399.137,244.283c4.531,0.345,5.486,4.315,7.819,6.503
		c0.767,0.718,0.479,1.888-0.477,2.405c-0.885,0.48-2,0.241-2.466-0.641C402.603,249.887,399.819,248.153,399.137,244.283z"/>
	<path fill-rule="evenodd" clip-rule="evenodd" fill="#22B15D" d="M398.372,261.733c0.151,1.731,0.437,3.462,0.437,5.194
		c0.009,49.059-0.069,98.119,0.067,147.179c0.013,5.147-1.106,7.494-6.476,7.053c-6.099-0.504-12.253-0.257-18.382-0.336
		c-2.517-2.365-0.655-6.402-3.098-8.783c-1.654-1.281-3.563-1.023-5.407-1.026c-10.802-0.017-21.606,0.038-32.41-0.034
		c-3.635-0.024-6.64,0.241-7.102,5.192c-0.334,3.587-3.229,3.718-5.967,3.717c-10.43-0.002-20.861-0.002-31.292,0
		c-22.351,0.001-44.701,0.015-67.052-0.021c-2.192-0.004-4.506,0.485-6.476-1.092l-0.056-0.095
		c-1.114-12.033-0.286-24.094-0.469-36.142c-0.118-7.763-0.141-15.535,0.073-23.472c3.877,0.146,4.3,3.153,5.114,5.582
		c1.432,4.272,3.43,6.124,7.889,3.593c3.948-2.24,7.153-0.16,8.435,3.832c2.125,6.614,6.171,8.107,12.448,7.646
		c13.518-0.995,27.086-0.026,40.635-0.035c5.444-0.004,10.738-0.631,15.969-2.123c12.003-0.722,24.019-0.031,36.015-0.403
		c7.717-1.87,15.57-0.721,23.358-1.118c2.624-0.134,6.006,1.039,7.253-2.66c1.228-3.639,0.006-6.887-2.582-9.577
		c-5.659-5.876-12.693-7.729-20.396-7.896c-3.747-0.081-7.408,0.684-11.125,0.807c-6.735-3.386-13.934-5.754-20.304-9.976
		c-0.656-2.057-1.587-3.388-4.062-2.556c-7.282,2.446-15.176-0.249-22.498,3.152c-2.732,1.27-6.315,0.361-8.707-2.457
		c-1.016-1.196-2.016-2.551-1.229-4.183c0.69-1.434,2.188-1.525,3.452-1.01c3.515,1.436,4.033-0.101,3.981-3.497
		c-0.072-4.761,1.962-6.071,5.953-3.59c4.025,2.502,8.523,2.721,12.791,3.875c4.135,1.12,7.016-2.994,10.659-4.302
		c4.551-1.632,4.188-5.76,3.684-9.743c0.089-0.61,0.261-1.188,0.495-1.75c1.97-3.679,1.596-7.113-1.068-10.225
		c-2.656-3.102-3.571-6.316-0.542-9.991c-7.197-0.309-14.008,0.849-20.827,0.336c-1.906-0.144-4.789,0.322-4.847-2.541
		c-0.049-2.312,2.447-3.174,4.486-3.71c1.825-0.48,3.693-0.404,5.555-0.28c7.992,0.532,13.553-3.944,17.614-10.336
		c4.77-7.505,1.751-13.125-6.746-13.502c-3.533-0.157-3.533-0.157-6.798-2.461c3.144-2.794,6.778-1.788,10.135-1.977
		c2.774-0.157,5.649,0.319,6.663-3.623c0.457-1.773,2.297-1.74,3.797-1.743c21.961-0.042,43.921-0.053,65.881,0
		C396.44,260.63,397.516,260.844,398.372,261.733z"/>
	<path fill-rule="evenodd" clip-rule="evenodd" fill="#2AB562" d="M322.352,322.317c1.962,7.435,0.92,9.467-6.249,12.196
		c-0.347,0.131-0.777,0.166-1.027,0.405c-7.044,6.748-13.774,1.573-20.575-0.587c-1.465-0.465-2.406-2.923-4.348-1.459
		c-1.648,1.241-0.248,2.815-0.163,4.263c0.111,1.893,0.821,4.18-0.869,5.478c-1.67,1.283-3.021-0.552-4.368-1.461
		c-0.969-0.654-2.134-1.356-2.922-0.131c-0.79,1.227,0.494,2.048,1.183,2.89c2.788,3.407,7.086,3.186,9.762,1.732
		c4.528-2.458,8.966-1.547,13.46-1.876c2.546-0.187,4.926-0.146,7.468-1.464c3.238-1.679,5.555-0.407,4.271,4.081
		c-1.189,1.13-2.705,1.431-4.162,1.273c-13.419-1.441-25.67,2.343-37.311,8.974c-4.451,0.129-8.844-0.833-13.316-0.638
		c-5.324,0.231-10.215,1.823-14.857,4.411c-2.511,1.4-4.545,3.369-5.77,6.117c-2.666,5.984-0.766,9.474,5.424,9.436
		c16.872-0.105,33.681,2.169,50.571,1.368c2.149-0.102,4.534-0.432,6.121,1.829c-12.343,3.958-24.995,1.501-37.504,1.945
		c-7.149,0.255-14.397-0.516-21.438,0.458c-5.818,0.805-8.457-2.44-10.187-6.662c-2.99-7.293-3.627-7.807-9.34-3.447
		c-2.424,1.85-6.789-0.5-7.55-4.383c-0.486-2.479-0.906-4.891-3.495-7.036c0,19.551,0,39.103,0,58.651
		c-1.823-1.738-1.039-4.029-1.043-6.068c-0.057-48.531-0.063-97.062-0.066-145.593c0-7.246,0.379-7.633,7.234-7.635
		c57.116-0.01,114.231-0.035,171.348,0.078c1.925,0.003,5.126-1.975,5.739,2.271c-22.496,0.011-44.994-0.02-67.49,0.129
		c-1.47,0.009-5.669-2.167-3.578,3.364c0.646,1.712-2.498,2.319-4.326,2.356c-4.232,0.086-8.468,0.027-13.642,0.027
		c2.635,1.738,4.518,1.051,6.301,1.157c3.624,0.219,8.313-1.053,9.777,3.458c1.479,4.56,1.199,9.881-2.153,13.812
		c-5.236,6.141-10.959,11.552-19.938,9.771c-2.849-0.566-5.809-0.164-8.684,3.367c10.44,0.136,19.904,0.229,29.205-1.334
		c0.534,1.39-0.162,1.861-0.765,2.251c-4.094,2.647-4.577,5.347-1.07,9.299c3.153,3.554,5.02,7.88,0.475,12.106
		c-1.81-1.957-1.567-4.691-2.396-7.021c-2.828-7.961-10.354-12.009-17.799-9.449c-6.421,2.208-10.78,10.147-9.124,16.618
		c2.108,8.231,9.043,12.688,17.061,11.021c3.549-0.738,5.696-3.395,7.906-6.033C319.431,325.085,319.964,322.698,322.352,322.317z"
		/>
	<path fill-rule="evenodd" clip-rule="evenodd" fill="#EAEFE7" d="M373.89,410.885c0.042,3.313,0.086,6.628,0.129,9.94
		c-15.576,0.628-31.15,0.735-46.724-0.04c-3.305-7.518-1.582-10.813,5.71-10.825c12.072-0.022,24.143-0.041,36.213,0.037
		C370.775,410.006,372.586,409.17,373.89,410.885z"/>
	<path fill-rule="evenodd" clip-rule="evenodd" fill="#2AB562" d="M373.89,410.885c-14.118-0.969-28.25-0.154-42.37-0.437
		c-3.107-0.062-4.445,1.232-4.223,4.497c0.132,1.938,0.004,3.895-0.005,5.84c-32.604,0.097-65.208,0.192-97.812,0.287
		c-3.541,0.011-7.082,0.041-10.621-0.021c-1.577-0.027-3.584,0.499-3.644-2.277c34.369-0.017,68.737-0.101,103.105,0.031
		c4.399,0.015,7.341-0.464,6.505-6.136c-0.305-2.066,0.71-3.313,2.865-3.307c14.861,0.039,29.719,0.052,44.579,0.157
		C372.813,409.523,373.351,410.408,373.89,410.885z"/>
	<path fill-rule="evenodd" clip-rule="evenodd" fill="#F4F6F5" d="M276.816,355.582c10.373-7.691,21.97-10.543,34.532-9.604
		c2.207,0.167,4.417,0.271,6.626,0.406c6.585,2.468,13.218,4.83,18.938,9.238c7.642,4.36,10.097,15.107,5.163,22.618
		c-22.096,0.123-44.19-0.119-66.28,0.162c-4.703,0.06-6.364-1.769-6.416-6.338C269.302,365.259,269.257,358.564,276.816,355.582z"/>
	<path fill-rule="evenodd" clip-rule="evenodd" fill="#F2F6F4" d="M322.352,322.317c-2.556,5.522-5.51,10.621-11.845,12.061
		c-9.053,2.058-17.389-3.774-18.966-13.256c-1.397-8.407,4.354-16.722,12.672-18.316c8.378-1.606,16.74,4.897,17.988,14.045
		c0.21,1.531,0.193,3.095,0.282,4.644C322.223,321.732,322.178,322.006,322.352,322.317z"/>
	<path fill-rule="evenodd" clip-rule="evenodd" fill="#64CA8F" d="M276.816,355.582c-5.253,4.511-6.35,10.443-6.018,17.244
		c0.187,3.847,1.323,4.973,4.896,4.942c22.298-0.179,44.597-0.167,66.896-0.217c0.357,0.269,0.486,0.551,0.388,0.847
		c-0.1,0.302-0.205,0.454-0.317,0.454c-12.661,0.099-25.324,0.198-37.986,0.298c-2.976-0.058-5.959-0.299-8.923-0.147
		c-16.18,0.828-32.277-1.647-48.449-1.241c-7.521,0.188-10.274-5.146-6.333-12.315c4.488-8.164,12.41-9.984,20.382-11.055
		C266.491,353.702,271.745,354.014,276.816,355.582z"/>
	<path fill-rule="evenodd" clip-rule="evenodd" fill="#60C98D" d="M342.66,378.852c-0.023-0.434-0.047-0.867-0.07-1.3
		c0.646-8.031,1.18-16.032-5.678-21.93c9.277-2.263,18.355-2.216,27.228,2.05c6.653,3.198,9.801,7.917,9.853,14.624
		c0.032,4.019-1.359,5.646-5.234,5.536c-6.516-0.186-13.039-0.035-19.559-0.05C346.961,377.777,344.722,377.694,342.66,378.852z"/>
	<path fill-rule="evenodd" clip-rule="evenodd" fill="#63C98D" d="M337.018,333.481c0.003-7.109,4.312-11.932,10.694-11.97
		c6.458-0.04,11.726,5.743,11.697,12.837c-0.024,6.246-5.278,11.199-11.792,11.12C340.765,345.386,337.015,341.144,337.018,333.481z
		"/>
	<path fill-rule="evenodd" clip-rule="evenodd" fill="#66C88F" d="M265.653,344.98c-7.612-0.07-11.437-3.991-11.348-11.632
		c0.079-6.811,5.071-11.863,11.708-11.85c6.369,0.013,10.835,5.056,10.724,12.107C276.62,340.967,272.643,345.048,265.653,344.98z"
		/>
</g>
</svg>
